<svg id="visual" viewBox="0 0 960 300" width="960" height="300" xmlns="http://www.w3.org/2000/svg" xmlns:xlink="http://www.w3.org/1999/xlink" version="1.1"><path d="M0 137L20 130.5C40 124 80 111 120 119.7C160 128.3 200 158.7 240 158.3C280 158 320 127 360 117C400 107 440 118 480 127C520 136 560 143 600 153.7C640 164.3 680 178.7 720 182.8C760 187 800 181 840 175C880 169 920 163 940 160L960 157L960 0L940 0C920 0 880 0 840 0C800 0 760 0 720 0C680 0 640 0 600 0C560 0 520 0 480 0C440 0 400 0 360 0C320 0 280 0 240 0C200 0 160 0 120 0C80 0 40 0 20 0L0 0Z" fill="#262853"></path><path d="M0 106L20 109C40 112 80 118 120 117C160 116 200 108 240 100.7C280 93.3 320 86.7 360 82C400 77.3 440 74.7 480 73.3C520 72 560 72 600 75.2C640 78.3 680 84.7 720 90.3C760 96 800 101 840 111.7C880 122.3 920 138.7 940 146.8L960 155L960 0L940 0C920 0 880 0 840 0C800 0 760 0 720 0C680 0 640 0 600 0C560 0 520 0 480 0C440 0 400 0 360 0C320 0 280 0 240 0C200 0 160 0 120 0C80 0 40 0 20 0L0 0Z" fill="#582e6b"></path><path d="M0 90L20 89.3C40 88.7 80 87.3 120 82.3C160 77.3 200 68.7 240 65.2C280 61.7 320 63.3 360 63.5C400 63.7 440 62.3 480 69.3C520 76.3 560 91.7 600 93.8C640 96 680 85 720 74.5C760 64 800 54 840 50C880 46 920 48 940 49L960 50L960 0L940 0C920 0 880 0 840 0C800 0 760 0 720 0C680 0 640 0 600 0C560 0 520 0 480 0C440 0 400 0 360 0C320 0 280 0 240 0C200 0 160 0 120 0C80 0 40 0 20 0L0 0Z" fill="#912a73"></path><path d="M0 65L20 61.8C40 58.7 80 52.3 120 49.3C160 46.3 200 46.7 240 48.8C280 51 320 55 360 58.5C400 62 440 65 480 61.8C520 58.7 560 49.3 600 46.5C640 43.7 680 47.3 720 45.2C760 43 800 35 840 35.5C880 36 920 45 940 49.5L960 54L960 0L940 0C920 0 880 0 840 0C800 0 760 0 720 0C680 0 640 0 600 0C560 0 520 0 480 0C440 0 400 0 360 0C320 0 280 0 240 0C200 0 160 0 120 0C80 0 40 0 20 0L0 0Z" fill="#c62368"></path></svg>