<svg id="visual" viewBox="0 0 960 300" width="960" height="300" xmlns="http://www.w3.org/2000/svg" xmlns:xlink="http://www.w3.org/1999/xlink" version="1.1"><path d="M0 131L11.5 131C23 131 46 131 68.8 138C91.7 145 114.3 159 137.2 156.7C160 154.3 183 135.7 205.8 135.5C228.7 135.3 251.3 153.7 274.2 159.5C297 165.3 320 158.7 342.8 154.2C365.7 149.7 388.3 147.3 411.2 149.5C434 151.7 457 158.3 480 152.2C503 146 526 127 548.8 126.8C571.7 126.7 594.3 145.3 617.2 153.8C640 162.3 663 160.7 685.8 151.3C708.7 142 731.3 125 754.2 116C777 107 800 106 822.8 108.2C845.7 110.3 868.3 115.7 891.2 116.8C914 118 937 115 948.5 113.5L960 112L960 0L948.5 0C937 0 914 0 891.2 0C868.3 0 845.7 0 822.8 0C800 0 777 0 754.2 0C731.3 0 708.7 0 685.8 0C663 0 640 0 617.2 0C594.3 0 571.7 0 548.8 0C526 0 503 0 480 0C457 0 434 0 411.2 0C388.3 0 365.7 0 342.8 0C320 0 297 0 274.2 0C251.3 0 228.7 0 205.8 0C183 0 160 0 137.2 0C114.3 0 91.7 0 68.8 0C46 0 23 0 11.5 0L0 0Z" fill="#c62368"></path><path d="M0 137L11.5 137.5C23 138 46 139 68.8 130.3C91.7 121.7 114.3 103.3 137.2 95C160 86.7 183 88.3 205.8 95.2C228.7 102 251.3 114 274.2 113C297 112 320 98 342.8 99.5C365.7 101 388.3 118 411.2 122.2C434 126.3 457 117.7 480 115.8C503 114 526 119 548.8 121.5C571.7 124 594.3 124 617.2 124.3C640 124.7 663 125.3 685.8 120.2C708.7 115 731.3 104 754.2 99.8C777 95.7 800 98.3 822.8 103.7C845.7 109 868.3 117 891.2 118.3C914 119.7 937 114.3 948.5 111.7L960 109L960 0L948.5 0C937 0 914 0 891.2 0C868.3 0 845.7 0 822.8 0C800 0 777 0 754.2 0C731.3 0 708.7 0 685.8 0C663 0 640 0 617.2 0C594.3 0 571.7 0 548.8 0C526 0 503 0 480 0C457 0 434 0 411.2 0C388.3 0 365.7 0 342.8 0C320 0 297 0 274.2 0C251.3 0 228.7 0 205.8 0C183 0 160 0 137.2 0C114.3 0 91.7 0 68.8 0C46 0 23 0 11.5 0L0 0Z" fill="#8a2b72"></path><path d="M0 101L11.5 101.2C23 101.3 46 101.7 68.8 102.2C91.7 102.7 114.3 103.3 137.2 98.3C160 93.3 183 82.7 205.8 76.5C228.7 70.3 251.3 68.7 274.2 74.5C297 80.3 320 93.7 342.8 98.2C365.7 102.7 388.3 98.3 411.2 99.2C434 100 457 106 480 107.8C503 109.7 526 107.3 548.8 99.3C571.7 91.3 594.3 77.7 617.2 77.5C640 77.3 663 90.7 685.8 97.2C708.7 103.7 731.3 103.3 754.2 99.3C777 95.3 800 87.7 822.8 83.5C845.7 79.3 868.3 78.7 891.2 82.3C914 86 937 94 948.5 98L960 102L960 0L948.5 0C937 0 914 0 891.2 0C868.3 0 845.7 0 822.8 0C800 0 777 0 754.2 0C731.3 0 708.7 0 685.8 0C663 0 640 0 617.2 0C594.3 0 571.7 0 548.8 0C526 0 503 0 480 0C457 0 434 0 411.2 0C388.3 0 365.7 0 342.8 0C320 0 297 0 274.2 0C251.3 0 228.7 0 205.8 0C183 0 160 0 137.2 0C114.3 0 91.7 0 68.8 0C46 0 23 0 11.5 0L0 0Z" fill="#4b2d66"></path><path d="M0 53L11.5 53.8C23 54.7 46 56.3 68.8 54.8C91.7 53.3 114.3 48.7 137.2 47.5C160 46.3 183 48.7 205.8 52.3C228.7 56 251.3 61 274.2 64.5C297 68 320 70 342.8 73.2C365.7 76.3 388.3 80.7 411.2 77.3C434 74 457 63 480 61.3C503 59.7 526 67.3 548.8 67.8C571.7 68.3 594.3 61.7 617.2 58.5C640 55.3 663 55.7 685.8 58C708.7 60.3 731.3 64.7 754.2 65.5C777 66.3 800 63.7 822.8 64.2C845.7 64.7 868.3 68.3 891.2 69.7C914 71 937 70 948.5 69.5L960 69L960 0L948.5 0C937 0 914 0 891.2 0C868.3 0 845.7 0 822.8 0C800 0 777 0 754.2 0C731.3 0 708.7 0 685.8 0C663 0 640 0 617.2 0C594.3 0 571.7 0 548.8 0C526 0 503 0 480 0C457 0 434 0 411.2 0C388.3 0 365.7 0 342.8 0C320 0 297 0 274.2 0C251.3 0 228.7 0 205.8 0C183 0 160 0 137.2 0C114.3 0 91.7 0 68.8 0C46 0 23 0 11.5 0L0 0Z" fill="#172447"></path><path d="M0 52L11.5 51.7C23 51.3 46 50.7 68.8 48C91.7 45.3 114.3 40.7 137.2 39.5C160 38.3 183 40.7 205.8 42.2C228.7 43.7 251.3 44.3 274.2 46.2C297 48 320 51 342.8 52.5C365.7 54 388.3 54 411.2 52.2C434 50.3 457 46.7 480 42.5C503 38.3 526 33.7 548.8 33C571.7 32.3 594.3 35.7 617.2 39.7C640 43.7 663 48.3 685.8 49C708.7 49.7 731.3 46.3 754.2 41.8C777 37.3 800 31.7 822.8 29.3C845.7 27 868.3 28 891.2 31.2C914 34.3 937 39.7 948.5 42.3L960 45L960 0L948.5 0C937 0 914 0 891.2 0C868.3 0 845.7 0 822.8 0C800 0 777 0 754.2 0C731.3 0 708.7 0 685.8 0C663 0 640 0 617.2 0C594.3 0 571.7 0 548.8 0C526 0 503 0 480 0C457 0 434 0 411.2 0C388.3 0 365.7 0 342.8 0C320 0 297 0 274.2 0C251.3 0 228.7 0 205.8 0C183 0 160 0 137.2 0C114.3 0 91.7 0 68.8 0C46 0 23 0 11.5 0L0 0Z" fill="#001220"></path></svg>