<svg id="visual" viewBox="0 0 960 300" width="960" height="300" xmlns="http://www.w3.org/2000/svg" xmlns:xlink="http://www.w3.org/1999/xlink" version="1.1"><path d="M0 154L10.7 159.8C21.3 165.7 42.7 177.3 64 189C85.3 200.7 106.7 212.3 128 205C149.3 197.7 170.7 171.3 192 166.7C213.3 162 234.7 179 256 182.8C277.3 186.7 298.7 177.3 320 181C341.3 184.7 362.7 201.3 384 203.3C405.3 205.3 426.7 192.7 448 192.7C469.3 192.7 490.7 205.3 512 209.3C533.3 213.3 554.7 208.7 576 199C597.3 189.3 618.7 174.7 640 168C661.3 161.3 682.7 162.7 704 160.5C725.3 158.3 746.7 152.7 768 156.8C789.3 161 810.7 175 832 180.2C853.3 185.3 874.7 181.7 896 183.7C917.3 185.7 938.7 193.3 949.3 197.2L960 201L960 0L949.3 0C938.7 0 917.3 0 896 0C874.7 0 853.3 0 832 0C810.7 0 789.3 0 768 0C746.7 0 725.3 0 704 0C682.7 0 661.3 0 640 0C618.7 0 597.3 0 576 0C554.7 0 533.3 0 512 0C490.7 0 469.3 0 448 0C426.7 0 405.3 0 384 0C362.7 0 341.3 0 320 0C298.7 0 277.3 0 256 0C234.7 0 213.3 0 192 0C170.7 0 149.3 0 128 0C106.7 0 85.3 0 64 0C42.7 0 21.3 0 10.7 0L0 0Z" fill="#c62368"></path><path d="M0 143L10.7 150.8C21.3 158.7 42.7 174.3 64 179.3C85.3 184.3 106.7 178.7 128 175C149.3 171.3 170.7 169.7 192 171.7C213.3 173.7 234.7 179.3 256 178.5C277.3 177.7 298.7 170.3 320 163.5C341.3 156.7 362.7 150.3 384 152C405.3 153.7 426.7 163.3 448 161.5C469.3 159.7 490.7 146.3 512 138.7C533.3 131 554.7 129 576 136.2C597.3 143.3 618.7 159.7 640 164.5C661.3 169.3 682.7 162.7 704 160.2C725.3 157.7 746.7 159.3 768 160.8C789.3 162.3 810.7 163.7 832 165.8C853.3 168 874.7 171 896 163.3C917.3 155.7 938.7 137.3 949.3 128.2L960 119L960 0L949.3 0C938.7 0 917.3 0 896 0C874.7 0 853.3 0 832 0C810.7 0 789.3 0 768 0C746.7 0 725.3 0 704 0C682.7 0 661.3 0 640 0C618.7 0 597.3 0 576 0C554.7 0 533.3 0 512 0C490.7 0 469.3 0 448 0C426.7 0 405.3 0 384 0C362.7 0 341.3 0 320 0C298.7 0 277.3 0 256 0C234.7 0 213.3 0 192 0C170.7 0 149.3 0 128 0C106.7 0 85.3 0 64 0C42.7 0 21.3 0 10.7 0L0 0Z" fill="#962972"></path><path d="M0 121L10.7 117.2C21.3 113.3 42.7 105.7 64 101.3C85.3 97 106.7 96 128 97.5C149.3 99 170.7 103 192 102.7C213.3 102.3 234.7 97.7 256 101.5C277.3 105.3 298.7 117.7 320 117.5C341.3 117.3 362.7 104.7 384 103.3C405.3 102 426.7 112 448 117C469.3 122 490.7 122 512 122.3C533.3 122.7 554.7 123.3 576 118.8C597.3 114.3 618.7 104.7 640 100.2C661.3 95.7 682.7 96.3 704 105.5C725.3 114.7 746.7 132.3 768 136.8C789.3 141.3 810.7 132.7 832 129.8C853.3 127 874.7 130 896 132.7C917.3 135.3 938.7 137.7 949.3 138.8L960 140L960 0L949.3 0C938.7 0 917.3 0 896 0C874.7 0 853.3 0 832 0C810.7 0 789.3 0 768 0C746.7 0 725.3 0 704 0C682.7 0 661.3 0 640 0C618.7 0 597.3 0 576 0C554.7 0 533.3 0 512 0C490.7 0 469.3 0 448 0C426.7 0 405.3 0 384 0C362.7 0 341.3 0 320 0C298.7 0 277.3 0 256 0C234.7 0 213.3 0 192 0C170.7 0 149.3 0 128 0C106.7 0 85.3 0 64 0C42.7 0 21.3 0 10.7 0L0 0Z" fill="#642e6e"></path><path d="M0 95L10.7 99C21.3 103 42.7 111 64 111.5C85.3 112 106.7 105 128 99.3C149.3 93.7 170.7 89.3 192 91C213.3 92.7 234.7 100.3 256 102.5C277.3 104.7 298.7 101.3 320 97.5C341.3 93.7 362.7 89.3 384 86.3C405.3 83.3 426.7 81.7 448 84.5C469.3 87.3 490.7 94.7 512 93.8C533.3 93 554.7 84 576 81.3C597.3 78.7 618.7 82.3 640 81.8C661.3 81.3 682.7 76.7 704 76.2C725.3 75.7 746.7 79.3 768 80.2C789.3 81 810.7 79 832 80.3C853.3 81.7 874.7 86.3 896 91.2C917.3 96 938.7 101 949.3 103.5L960 106L960 0L949.3 0C938.7 0 917.3 0 896 0C874.7 0 853.3 0 832 0C810.7 0 789.3 0 768 0C746.7 0 725.3 0 704 0C682.7 0 661.3 0 640 0C618.7 0 597.3 0 576 0C554.7 0 533.3 0 512 0C490.7 0 469.3 0 448 0C426.7 0 405.3 0 384 0C362.7 0 341.3 0 320 0C298.7 0 277.3 0 256 0C234.7 0 213.3 0 192 0C170.7 0 149.3 0 128 0C106.7 0 85.3 0 64 0C42.7 0 21.3 0 10.7 0L0 0Z" fill="#342a5b"></path><path d="M0 49L10.7 51.8C21.3 54.7 42.7 60.3 64 62.7C85.3 65 106.7 64 128 65.8C149.3 67.7 170.7 72.3 192 75.3C213.3 78.3 234.7 79.7 256 80.8C277.3 82 298.7 83 320 84.5C341.3 86 362.7 88 384 89C405.3 90 426.7 90 448 87C469.3 84 490.7 78 512 74.7C533.3 71.3 554.7 70.7 576 67.2C597.3 63.7 618.7 57.3 640 58.2C661.3 59 682.7 67 704 66.3C725.3 65.7 746.7 56.3 768 54.7C789.3 53 810.7 59 832 61C853.3 63 874.7 61 896 57.3C917.3 53.7 938.7 48.3 949.3 45.7L960 43L960 0L949.3 0C938.7 0 917.3 0 896 0C874.7 0 853.3 0 832 0C810.7 0 789.3 0 768 0C746.7 0 725.3 0 704 0C682.7 0 661.3 0 640 0C618.7 0 597.3 0 576 0C554.7 0 533.3 0 512 0C490.7 0 469.3 0 448 0C426.7 0 405.3 0 384 0C362.7 0 341.3 0 320 0C298.7 0 277.3 0 256 0C234.7 0 213.3 0 192 0C170.7 0 149.3 0 128 0C106.7 0 85.3 0 64 0C42.7 0 21.3 0 10.7 0L0 0Z" fill="#0f213f"></path><path d="M0 50L10.7 50.3C21.3 50.7 42.7 51.3 64 48C85.3 44.7 106.7 37.3 128 35.8C149.3 34.3 170.7 38.7 192 40.2C213.3 41.7 234.7 40.3 256 42C277.3 43.7 298.7 48.3 320 47.8C341.3 47.3 362.7 41.7 384 38.7C405.3 35.7 426.7 35.3 448 37.8C469.3 40.3 490.7 45.7 512 46.3C533.3 47 554.7 43 576 42.2C597.3 41.3 618.7 43.7 640 44.5C661.3 45.3 682.7 44.7 704 41.3C725.3 38 746.7 32 768 29.7C789.3 27.3 810.7 28.7 832 32.5C853.3 36.3 874.7 42.7 896 44.3C917.3 46 938.7 43 949.3 41.5L960 40L960 0L949.3 0C938.7 0 917.3 0 896 0C874.7 0 853.3 0 832 0C810.7 0 789.3 0 768 0C746.7 0 725.3 0 704 0C682.7 0 661.3 0 640 0C618.7 0 597.3 0 576 0C554.7 0 533.3 0 512 0C490.7 0 469.3 0 448 0C426.7 0 405.3 0 384 0C362.7 0 341.3 0 320 0C298.7 0 277.3 0 256 0C234.7 0 213.3 0 192 0C170.7 0 149.3 0 128 0C106.7 0 85.3 0 64 0C42.7 0 21.3 0 10.7 0L0 0Z" fill="#001220"></path></svg>