<svg id="visual" viewBox="0 0 960 300" width="960" height="300" xmlns="http://www.w3.org/2000/svg" xmlns:xlink="http://www.w3.org/1999/xlink" version="1.1"><path d="M0 201L14.5 200.7C29 200.3 58 199.7 87.2 187.3C116.3 175 145.7 151 174.8 136.5C204 122 233 117 262 116.3C291 115.7 320 119.3 349 127.3C378 135.3 407 147.7 436.2 156.7C465.3 165.7 494.7 171.3 523.8 170.2C553 169 582 161 611 161.3C640 161.7 669 170.3 698 160C727 149.7 756 120.3 785.2 119C814.3 117.7 843.7 144.3 872.8 147.7C902 151 931 131 945.5 121L960 111L960 301L945.5 301C931 301 902 301 872.8 301C843.7 301 814.3 301 785.2 301C756 301 727 301 698 301C669 301 640 301 611 301C582 301 553 301 523.8 301C494.7 301 465.3 301 436.2 301C407 301 378 301 349 301C320 301 291 301 262 301C233 301 204 301 174.8 301C145.7 301 116.3 301 87.2 301C58 301 29 301 14.5 301L0 301Z" fill="#fa7268"></path><path d="M0 167L14.5 170.2C29 173.3 58 179.7 87.2 185.7C116.3 191.7 145.7 197.3 174.8 193.5C204 189.7 233 176.3 262 165.3C291 154.3 320 145.7 349 151.3C378 157 407 177 436.2 190.2C465.3 203.3 494.7 209.7 523.8 208C553 206.3 582 196.7 611 193.8C640 191 669 195 698 186C727 177 756 155 785.2 144.7C814.3 134.3 843.7 135.7 872.8 135.7C902 135.7 931 134.3 945.5 133.7L960 133L960 301L945.5 301C931 301 902 301 872.8 301C843.7 301 814.3 301 785.2 301C756 301 727 301 698 301C669 301 640 301 611 301C582 301 553 301 523.8 301C494.7 301 465.3 301 436.2 301C407 301 378 301 349 301C320 301 291 301 262 301C233 301 204 301 174.8 301C145.7 301 116.3 301 87.2 301C58 301 29 301 14.5 301L0 301Z" fill="#eb5967"></path><path d="M0 224L14.5 227.7C29 231.3 58 238.7 87.2 242.7C116.3 246.7 145.7 247.3 174.8 248.3C204 249.3 233 250.7 262 239.2C291 227.7 320 203.3 349 193.5C378 183.7 407 188.3 436.2 196.3C465.3 204.3 494.7 215.7 523.8 222.2C553 228.7 582 230.3 611 226.5C640 222.7 669 213.3 698 216.8C727 220.3 756 236.7 785.2 239.3C814.3 242 843.7 231 872.8 218.7C902 206.3 931 192.7 945.5 185.8L960 179L960 301L945.5 301C931 301 902 301 872.8 301C843.7 301 814.3 301 785.2 301C756 301 727 301 698 301C669 301 640 301 611 301C582 301 553 301 523.8 301C494.7 301 465.3 301 436.2 301C407 301 378 301 349 301C320 301 291 301 262 301C233 301 204 301 174.8 301C145.7 301 116.3 301 87.2 301C58 301 29 301 14.5 301L0 301Z" fill="#da3f67"></path><path d="M0 242L14.5 238.8C29 235.7 58 229.3 87.2 226.5C116.3 223.7 145.7 224.3 174.8 228.3C204 232.3 233 239.7 262 247.5C291 255.3 320 263.7 349 264.5C378 265.3 407 258.7 436.2 251.8C465.3 245 494.7 238 523.8 235.8C553 233.7 582 236.3 611 240.5C640 244.7 669 250.3 698 251.3C727 252.3 756 248.7 785.2 245.5C814.3 242.3 843.7 239.7 872.8 239.5C902 239.3 931 241.7 945.5 242.8L960 244L960 301L945.5 301C931 301 902 301 872.8 301C843.7 301 814.3 301 785.2 301C756 301 727 301 698 301C669 301 640 301 611 301C582 301 553 301 523.8 301C494.7 301 465.3 301 436.2 301C407 301 378 301 349 301C320 301 291 301 262 301C233 301 204 301 174.8 301C145.7 301 116.3 301 87.2 301C58 301 29 301 14.5 301L0 301Z" fill="#c62368"></path></svg>