<svg id="visual" viewBox="0 0 960 300" width="960" height="300" xmlns="http://www.w3.org/2000/svg" xmlns:xlink="http://www.w3.org/1999/xlink" version="1.1"><path d="M0 72L22.8 67C45.7 62 91.3 52 137 55.3C182.7 58.7 228.3 75.3 274 80C319.7 84.7 365.3 77.3 411.2 77.8C457 78.3 503 86.7 548.8 91.8C594.7 97 640.3 99 686 92.7C731.7 86.3 777.3 71.7 823 68C868.7 64.3 914.3 71.7 937.2 75.3L960 79L960 0L937.2 0C914.3 0 868.7 0 823 0C777.3 0 731.7 0 686 0C640.3 0 594.7 0 548.8 0C503 0 457 0 411.2 0C365.3 0 319.7 0 274 0C228.3 0 182.7 0 137 0C91.3 0 45.7 0 22.8 0L0 0Z" fill="#001220" stroke-linecap="round" stroke-linejoin="miter"></path></svg>